# xmcd CD database file
#
# Track frame offsets:
#	150
#	12925
#	36102
#	49905
#	63075
#	92857
#	108672
#	123760
#	136510
#	156157
#
# Disc length: 2381 seconds
#
# Revision: 0
# Processed by: cddbd v1.5.1PL2 Copyright (c) Steve Scherf et al.
# Submitted via: CD2WAV32(JP) R3.22
#
DISCID=79094b0a
DTITLE=Blue Heaven - LIVE
DYEAR=1980
DGENRE=Blues
TTITLE0=She walks right in
TTITLE1=Jelly, Jelly
TTITLE2=Jump sister Bessie
TTITLE3=Reconsider Baby
TTITLE4=Nothing can change this love
TTITLE5=My baby is a good 'Un
TTITLE6=Hot little mama
TTITLE7=Those lonely, Lonely nights
TTITLE8=Walking out on you
TTITLE9=Mannish Boy
EXTD=
EXTT0=
EXTT1=
EXTT2=
EXTT3=
EXTT4=
EXTT5=
EXTT6=
EXTT7=
EXTT8=
EXTT9=
PLAYORDER=
